<?xml version="1.0" standalone="no"?>
<!DOCTYPE svg PUBLIC "-//W3C//DTD SVG 20010904//EN"
 "http://www.w3.org/TR/2001/REC-SVG-20010904/DTD/svg10.dtd">
<svg version="1.0" xmlns="http://www.w3.org/2000/svg"
 width="260.000000pt" height="260.000000pt" viewBox="0 0 260.000000 260.000000"
 preserveAspectRatio="xMidYMid meet">
<g transform="translate(0.000000,260.000000) scale(0.100000,-0.100000)"
fill="#ffba24" stroke="none">
<path d="M1299 2589 c0 -8 -2 -23 -4 -33 -2 -10 -6 -58 -10 -105 -3 -47 -8
-99 -10 -116 -8 -55 -15 -123 -30 -285 -7 -83 -16 -175 -20 -205 -11 -84 -19
-195 -18 -234 1 -60 36 -95 95 -94 34 1 48 7 70 32 29 33 31 51 14 207 -5 46
-12 114 -20 209 -2 22 -7 76 -11 120 -4 44 -8 87 -10 95 -2 8 -6 53 -10 100
-4 47 -9 99 -11 115 -2 17 -6 68 -10 115 -6 77 -13 115 -15 79z"/>
<path d="M804 2487 c10 -31 94 -302 148 -477 79 -260 80 -262 113 -282 29 -17
33 -17 65 0 62 31 59 57 -22 212 -39 74 -74 140 -78 145 -4 6 -33 60 -65 120
-32 61 -76 141 -97 178 -21 38 -38 72 -38 75 0 4 -8 16 -17 27 -14 17 -15 18
-9 2z"/>
<path d="M1767 2447 c-15 -29 -46 -88 -70 -132 -24 -44 -67 -125 -97 -180 -29
-55 -65 -122 -80 -150 -97 -176 -106 -207 -67 -243 31 -29 77 -29 104 1 17 18
45 89 59 152 2 9 72 238 154 504 16 52 28 96 27 98 -2 1 -15 -21 -30 -50z"/>
<path d="M395 2199 c11 -13 22 -26 26 -29 3 -3 32 -39 65 -80 32 -41 69 -86
81 -100 18 -21 188 -228 256 -312 12 -14 58 -71 102 -127 102 -128 147 -151
214 -109 25 15 45 70 37 102 -8 31 -31 52 -336 302 -146 120 -267 220 -270
223 -3 4 -27 24 -55 46 -27 22 -61 50 -75 63 -14 13 -34 28 -45 34 l-20 11 20
-24z"/>
<path d="M2180 2189 c-63 -53 -116 -96 -265 -219 -88 -72 -169 -139 -180 -148
-11 -9 -68 -55 -125 -102 -171 -138 -183 -151 -183 -200 0 -51 32 -88 82 -95
46 -5 69 8 123 73 25 32 117 143 203 247 87 105 174 210 194 235 20 24 71 86
113 137 76 91 88 113 38 72z"/>
<path d="M110 1806 c0 -5 58 -38 180 -104 101 -53 295 -158 402 -216 47 -26
96 -49 108 -51 66 -13 113 68 68 119 -19 21 -90 46 -383 137 -198 61 -363 113
-367 115 -5 3 -8 3 -8 0z"/>
<path d="M2200 1715 c-162 -51 -328 -103 -368 -114 -40 -12 -82 -31 -92 -41
-28 -28 -26 -75 5 -105 43 -44 9 -58 558 240 108 59 197 109 197 111 0 2 -1 3
-2 3 -2 -1 -136 -43 -298 -94z"/>
<path d="M1224 1479 c-107 -51 -147 -166 -94 -270 73 -143 282 -134 350 15 32
68 13 164 -43 217 -58 54 -145 70 -213 38z m171 -22 c48 -25 85 -94 85 -157 0
-115 -100 -199 -210 -177 -142 29 -197 190 -101 298 57 64 146 79 226 36z"/>
<path d="M1243 1459 c-36 -11 -99 -78 -106 -114 -20 -108 45 -199 150 -211 94
-11 183 70 183 166 0 57 -39 120 -90 147 -45 24 -83 27 -137 12z m112 -13 c47
-20 71 -45 90 -91 14 -35 14 -38 0 -21 -8 11 -15 25 -15 32 0 16 -67 74 -88
75 -9 1 -25 2 -34 2 -10 0 -18 4 -18 8 0 13 26 11 65 -5z m-111 -15 c-55 -25
-84 -68 -86 -125 -3 -168 227 -207 281 -47 6 18 8 37 5 42 -3 5 0 9 5 9 13 0
14 -6 1 -51 -34 -121 -195 -153 -270 -55 -24 32 -37 87 -29 129 10 56 70 115
119 116 8 0 -3 -8 -26 -18z"/>
<path d="M940 1397 c-3 -3 -36 -7 -75 -11 -38 -3 -83 -8 -100 -10 -30 -4 -103
-11 -232 -22 -38 -3 -75 -7 -83 -9 -8 -2 -55 -7 -105 -11 -49 -3 -98 -8 -109
-10 -10 -2 -51 -6 -90 -10 -88 -7 -117 -12 -124 -19 -3 -3 12 -5 34 -6 21 0
47 -2 57 -4 16 -3 55 -7 212 -21 28 -2 73 -6 100 -9 91 -10 124 -13 310 -30
28 -2 82 -8 120 -12 39 -4 94 -7 123 -8 48 0 57 3 83 33 25 28 29 39 24 70 -8
51 -42 82 -96 88 -25 3 -47 3 -49 1z"/>
<path d="M1568 1385 c-52 -29 -66 -90 -34 -140 30 -46 58 -49 226 -30 19 2 69
7 110 10 41 3 91 7 110 10 19 2 62 7 95 10 33 3 80 7 105 10 25 3 70 7 100 10
60 4 193 16 225 21 11 1 38 3 60 4 l40 2 -35 8 c-19 4 -69 11 -110 14 -77 7
-111 11 -190 20 -25 3 -74 8 -110 11 -36 3 -85 7 -110 10 -25 3 -67 7 -95 10
-27 2 -70 6 -95 9 -25 3 -74 8 -110 11 -36 3 -85 8 -110 10 -29 3 -55 -1 -72
-10z"/>
<path d="M1044 1170 c-18 -7 -72 -65 -134 -143 -8 -11 -20 -24 -25 -31 -6 -6
-39 -47 -75 -91 -35 -44 -67 -82 -70 -85 -3 -3 -49 -59 -102 -125 -53 -66
-105 -129 -115 -140 -40 -45 -144 -175 -140 -175 3 0 36 26 74 58 93 76 96 79
415 340 324 265 344 292 281 362 -29 32 -72 44 -109 30z"/>
<path d="M1485 1170 c-47 -18 -76 -88 -54 -131 10 -20 83 -83 354 -304 347
-284 423 -345 431 -345 3 0 -11 19 -32 43 -22 24 -51 59 -66 78 -14 18 -38 48
-52 64 -14 17 -126 152 -249 301 -122 149 -230 277 -240 283 -24 16 -67 21
-92 11z"/>
<path d="M660 1102 c-69 -38 -154 -84 -190 -104 -91 -50 -173 -94 -260 -141
-103 -55 -115 -69 -34 -42 38 13 130 42 204 65 74 23 171 53 215 67 242 75
265 84 278 111 7 15 12 33 11 40 -1 6 -2 17 -3 22 -2 21 -42 50 -68 50 -16 0
-84 -31 -153 -68z"/>
<path d="M1742 1147 c-29 -31 -29 -77 1 -104 14 -14 151 -61 382 -133 198 -62
363 -114 368 -117 4 -2 7 -2 7 1 0 2 -37 24 -82 49 -46 24 -114 61 -153 83
-341 186 -453 244 -476 244 -14 0 -35 -10 -47 -23z"/>
<path d="M1263 1075 c-42 -18 -62 -59 -58 -115 6 -70 15 -161 20 -205 3 -22 7
-62 9 -90 7 -71 16 -173 21 -220 2 -22 7 -71 10 -110 4 -38 8 -81 10 -95 3
-14 7 -56 10 -95 12 -138 24 -189 26 -104 0 24 2 53 4 64 2 11 7 54 10 95 6
79 13 152 20 210 2 19 7 69 10 110 3 41 8 91 10 110 22 177 35 369 27 391 -22
55 -74 78 -129 54z"/>
<path d="M1080 882 c-34 -11 -52 -41 -85 -146 -69 -221 -192 -636 -189 -636 1
0 31 53 65 118 34 64 74 140 89 167 15 28 53 100 85 160 32 61 73 138 91 172
35 63 42 100 24 133 -11 20 -58 39 -80 32z"/>
<path d="M1485 880 c-59 -22 -64 -74 -15 -165 89 -165 280 -524 300 -563 12
-24 24 -41 26 -39 3 3 -23 95 -73 252 -19 62 -121 398 -135 445 -6 19 -14 40
-20 47 -15 18 -61 31 -83 23z"/>
</g>
</svg>
